<?xml version="1.0" encoding="UTF-8"?>
<!DOCTYPE svg PUBLIC "-//W3C//DTD SVG 1.1//EN" "http://www.w3.org/Graphics/SVG/1.1/DTD/svg11.dtd">
<svg xmlns="http://www.w3.org/2000/svg" version="1.1" width="2717px" height="2718px" style="shape-rendering:geometricPrecision; text-rendering:geometricPrecision; image-rendering:optimizeQuality; fill-rule:evenodd; clip-rule:evenodd" xmlns:xlink="http://www.w3.org/1999/xlink">
<g><path style="opacity:0.996" fill="#2d4a98" d="M 235.5,-0.5 C 984.833,-0.5 1734.17,-0.5 2483.5,-0.5C 2572.45,8.03897 2639.95,50.3723 2686,126.5C 2701.7,155.105 2711.87,185.438 2716.5,217.5C 2716.5,978.167 2716.5,1738.83 2716.5,2499.5C 2703.95,2578.52 2663.95,2639.36 2596.5,2682C 2559.64,2703.63 2519.97,2715.46 2477.5,2717.5C 1732.17,2717.5 986.833,2717.5 241.5,2717.5C 139.207,2709.62 65.7074,2659.62 21,2567.5C 9.75953,2541.3 3.09287,2513.97 1,2485.5C 0.00326035,1730.48 0.336594,975.485 2,220.5C 15.9005,127.161 65.4005,60.3279 150.5,20C 177.857,8.57634 206.19,1.743 235.5,-0.5 Z"/></g>
<g><path style="opacity:1" fill="#fdfdfe" d="M 357.5,101.5 C 1023.83,101.333 1690.17,101.5 2356.5,102C 2451.26,109.775 2524.43,153.275 2576,232.5C 2599.57,271.552 2612.91,313.885 2616,359.5C 2616.67,1023.83 2616.67,1688.17 2616,2352.5C 2606.81,2464.63 2551.64,2544.8 2450.5,2593C 2420.82,2605.78 2389.82,2613.12 2357.5,2615C 1692.17,2615.67 1026.83,2615.67 361.5,2615C 284.436,2609.22 220.269,2577.72 169,2520.5C 130.852,2475.17 108.852,2422.84 103,2363.5C 102.333,1693.5 102.333,1023.5 103,353.5C 115.403,247.799 169.237,171.633 264.5,125C 294.32,111.962 325.32,104.129 357.5,101.5 Z"/></g>
<g><path style="opacity:1" fill="#2d4a98" d="M 356.5,151.5 C 1024.17,151.333 1691.83,151.5 2359.5,152C 2448.28,162.784 2511.45,208.617 2549,289.5C 2557,309.816 2562.33,330.816 2565,352.5C 2565.67,1022.17 2565.67,1691.83 2565,2361.5C 2553.56,2450.25 2507.06,2512.75 2425.5,2549C 2403.02,2558.05 2379.69,2563.38 2355.5,2565C 1690.17,2565.67 1024.83,2565.67 359.5,2565C 270.791,2554.58 207.624,2509.08 170,2428.5C 160.621,2405.7 154.954,2382.03 153,2357.5C 152.333,1689.5 152.333,1021.5 153,353.5C 164.404,270.143 207.571,209.643 282.5,172C 306.262,161.424 330.929,154.59 356.5,151.5 Z"/></g>
<g><path style="opacity:1" fill="#cad1e4" d="M 332.5,893.5 C 332.5,1237.17 332.5,1580.83 332.5,1924.5C 371.5,1924.5 410.5,1924.5 449.5,1924.5C 449.5,1924.83 449.5,1925.17 449.5,1925.5C 410.167,1925.5 370.833,1925.5 331.5,1925.5C 331.167,1581.33 331.5,1237.33 332.5,893.5 Z"/></g>
<g><path style="opacity:1" fill="#fefefe" d="M 332.5,893.5 C 371.5,893.5 410.5,893.5 449.5,893.5C 449.5,1121.17 449.5,1348.83 449.5,1576.5C 1050.33,1576.83 1651,1576.5 2251.5,1575.5C 2251.5,1426.83 2251.5,1278.17 2251.5,1129.5C 2290.83,1129.5 2330.17,1129.5 2369.5,1129.5C 2369.5,1394.83 2369.5,1660.17 2369.5,1925.5C 2330.17,1925.5 2290.83,1925.5 2251.5,1925.5C 2251.5,1867.5 2251.5,1809.5 2251.5,1751.5C 1651,1750.5 1050.33,1750.17 449.5,1750.5C 449.5,1808.5 449.5,1866.5 449.5,1924.5C 410.5,1924.5 371.5,1924.5 332.5,1924.5C 332.5,1580.83 332.5,1237.17 332.5,893.5 Z"/></g>
<g><path style="opacity:1" fill="#fefefe" d="M 670.5,954.5 C 736.518,950.588 786.685,976.588 821,1032.5C 850.329,1092.82 844.663,1149.49 804,1202.5C 759.531,1249.98 705.697,1265.48 642.5,1249C 576.536,1223.79 541.536,1175.79 537.5,1105C 539.661,1047.65 564.994,1003.99 613.5,974C 631.497,964.169 650.497,957.669 670.5,954.5 Z"/></g>
<g><path style="opacity:1" fill="#fefefe" d="M 965.5,994.5 C 998.817,993.239 1024.32,1006.57 1042,1034.5C 1097.55,1149.26 1153.88,1263.6 1211,1377.5C 1221.19,1426.3 1202.36,1457.47 1154.5,1471C 967.167,1471.67 779.833,1471.67 592.5,1471C 553.925,1463.26 533.258,1439.76 530.5,1400.5C 532.856,1365.27 550.856,1342.44 584.5,1332C 742.799,1330.67 901.132,1330.01 1059.5,1330C 1040.42,1318.37 1021.25,1306.87 1002,1295.5C 969.589,1230.34 936.922,1165.34 904,1100.5C 890.044,1054.93 904.211,1021.43 946.5,1000C 952.828,997.673 959.162,995.84 965.5,994.5 Z"/></g>
<g><path style="opacity:1" fill="#6277b2" d="M 2079.5,1040.5 C 1771,1040.17 1462.67,1040.5 1154.5,1041.5C 1153.96,1041.44 1153.62,1041.11 1153.5,1040.5C 1307.83,1040.17 1462.17,1039.83 1616.5,1039.5C 1771,1039.5 1925.33,1039.83 2079.5,1040.5 Z"/></g>
<g><path style="opacity:1" fill="#fefefe" d="M 2079.5,1040.5 C 2114.46,1043.32 2138.96,1060.65 2153,1092.5C 2157.04,1104.5 2158.87,1116.83 2158.5,1129.5C 2157.5,1243 2157.17,1356.67 2157.5,1470.5C 1864.83,1471.17 1572.5,1470.5 1280.5,1468.5C 1289.51,1448.65 1296.01,1427.98 1300,1406.5C 1304.71,1375.79 1300.38,1346.46 1287,1318.5C 1279.33,1301.5 1271.67,1284.5 1264,1267.5C 1227.21,1192.26 1190.71,1116.93 1154.5,1041.5C 1462.67,1040.5 1771,1040.17 2079.5,1040.5 Z"/></g>
<g><path style="opacity:1" fill="#cad1e4" d="M 2158.5,1129.5 C 2158.5,1243.5 2158.5,1357.5 2158.5,1471.5C 1865.5,1471.5 1572.5,1471.5 1279.5,1471.5C 1279.26,1470.21 1279.6,1469.21 1280.5,1468.5C 1572.5,1470.5 1864.83,1471.17 2157.5,1470.5C 2157.17,1356.67 2157.5,1243 2158.5,1129.5 Z"/></g>
<g><path style="opacity:1" fill="#6277b2" d="M 449.5,893.5 C 450.5,1120.67 450.833,1348 450.5,1575.5C 1050.83,1575.5 1651.17,1575.5 2251.5,1575.5C 1651,1576.5 1050.33,1576.83 449.5,1576.5C 449.5,1348.83 449.5,1121.17 449.5,893.5 Z"/></g>
<g><path style="opacity:1" fill="#7b8cbe" d="M 2251.5,1751.5 C 1651.17,1751.5 1050.83,1751.5 450.5,1751.5C 450.832,1809.67 450.499,1867.67 449.5,1925.5C 449.5,1925.17 449.5,1924.83 449.5,1924.5C 449.5,1866.5 449.5,1808.5 449.5,1750.5C 1050.33,1750.17 1651,1750.5 2251.5,1751.5 Z"/></g>
</svg>
