<?xml version="1.0" encoding="UTF-8"?>
<!DOCTYPE svg PUBLIC "-//W3C//DTD SVG 1.1//EN" "http://www.w3.org/Graphics/SVG/1.1/DTD/svg11.dtd">
<svg xmlns="http://www.w3.org/2000/svg" version="1.1" width="2717px" height="2717px" style="shape-rendering:geometricPrecision; text-rendering:geometricPrecision; image-rendering:optimizeQuality; fill-rule:evenodd; clip-rule:evenodd" xmlns:xlink="http://www.w3.org/1999/xlink">
<g><path style="opacity:0.993" fill="#b69c1c" d="M 543.5,43.5 C 1110.17,43.3333 1676.83,43.5 2243.5,44C 2351.67,212.833 2459.83,381.667 2568,550.5C 2518.78,1020.05 2397.78,1470.05 2205,1900.5C 2140.7,2043.44 2069.37,2182.44 1991,2317.5C 1949.69,2381.52 1900.86,2439.69 1844.5,2492C 1795.51,2539.33 1741.18,2579.33 1681.5,2612C 1540.9,2685.51 1395.23,2697.51 1244.5,2648C 1163.71,2618.13 1091.38,2574.8 1027.5,2518C 974.872,2471.39 928.038,2419.89 887,2363.5C 668.803,2024.06 499.136,1661.06 378,1274.5C 304.867,1038.8 251.7,798.629 218.5,554C 220.869,548.618 223.702,543.451 227,538.5C 333.02,373.783 438.52,208.783 543.5,43.5 Z"/></g>
<g><path style="opacity:1" fill="#2c2664" d="M 576.5,101.5 C 1121.17,101.333 1665.83,101.5 2210.5,102C 2309.71,256.246 2408.54,410.746 2507,565.5C 2467.31,930.931 2382.64,1285.6 2253,1629.5C 2167.74,1855.35 2064.74,2072.68 1944,2281.5C 1883.72,2374.78 1808.56,2454.28 1718.5,2520C 1663.17,2559.5 1602.5,2588 1536.5,2605.5C 1412.15,2633.95 1294.15,2617.45 1182.5,2556C 1136.81,2529.98 1094.47,2499.32 1055.5,2464C 1000.21,2413.43 952.374,2356.93 912,2294.5C 857.979,2205.81 805.979,2115.81 756,2024.5C 511.621,1567.19 352.788,1081.52 279.5,567.5C 378.507,412.149 477.507,256.815 576.5,101.5 Z"/></g>
<g><path style="opacity:1" fill="#b69c1c" d="M 1408.5,294.5 C 1440.71,339.574 1471.21,385.908 1500,433.5C 1533.44,491.722 1559.77,553.056 1579,617.5C 1583.76,634.616 1587.76,651.95 1591,669.5C 1610.91,594.469 1625.91,518.469 1636,441.5C 1659.82,470.986 1682.49,501.319 1704,532.5C 1751.32,608.12 1779.32,690.453 1788,779.5C 1806.93,759.571 1826.76,740.737 1847.5,723C 1884.42,693.954 1921.26,664.787 1958,635.5C 1943.28,670.29 1927.95,704.957 1912,739.5C 1883.5,801.711 1877.83,866.045 1895,932.5C 1908.28,992.705 1928.61,1050.37 1956,1105.5C 1980.28,1165.34 1998.28,1227.01 2010,1290.5C 2023.48,1396.24 2001.48,1493.91 1944,1583.5C 1912.91,1632.27 1874.41,1674.43 1828.5,1710C 1783.97,1739.93 1735.97,1762.93 1684.5,1779C 1605.35,1803.14 1524.35,1816.8 1441.5,1820C 1404.17,1820.67 1366.83,1820.67 1329.5,1820C 1282.8,1816.83 1236.13,1813.16 1189.5,1809C 1095.2,1795.07 1011.53,1756.73 938.5,1694C 892.659,1651.16 856.492,1601.33 830,1544.5C 767.592,1414.13 756.592,1279.46 797,1140.5C 821.95,1061 862.617,990.997 919,930.5C 958.351,886.144 1001.18,845.644 1047.5,809C 1119.62,755.772 1192.62,703.772 1266.5,653C 1313.35,619.821 1351.52,578.654 1381,529.5C 1402.73,489.756 1413.23,447.256 1412.5,402C 1411.87,366.109 1410.54,330.275 1408.5,294.5 Z"/></g>
<g><path style="opacity:1" fill="#3458a6" d="M 1362.5,1336.5 C 1362.05,1339.01 1362.72,1341.01 1364.5,1342.5C 1372.78,1398.41 1387.95,1452.41 1410,1504.5C 1423.48,1541.39 1428.48,1579.39 1425,1618.5C 1416.5,1650.01 1400,1676.51 1375.5,1698C 1326.51,1741.6 1269.18,1759.6 1203.5,1752C 1119.86,1740.5 1045.86,1707.83 981.5,1654C 934.807,1611.48 899.307,1560.98 875,1502.5C 816.692,1367.34 817.025,1232.34 876,1097.5C 897.45,1052.42 924.783,1011.42 958,974.5C 1008.68,916.804 1065.18,865.97 1127.5,822C 1189.22,777.944 1251.22,734.278 1313.5,691C 1360.51,655.004 1399.34,611.837 1430,561.5C 1443.26,537.652 1453.76,512.652 1461.5,486.5C 1495.85,548.033 1520.01,613.366 1534,682.5C 1545.37,746.083 1540.71,808.417 1520,869.5C 1509.71,897.426 1494.38,922.093 1474,943.5C 1433.03,997.086 1401.7,1056.09 1380,1120.5C 1358.83,1191.21 1353,1263.21 1362.5,1336.5 Z"/></g>
<g><path style="opacity:1" fill="#fefefe" d="M 1669.5,590.5 C 1678.88,606.09 1687.05,622.423 1694,639.5C 1710.96,679.996 1722.29,721.996 1728,765.5C 1731.8,802.594 1728.14,838.927 1717,874.5C 1684.92,929.838 1669.25,989.505 1670,1053.5C 1669.03,1146.84 1669.53,1240.18 1671.5,1333.5C 1671.86,1363.16 1666.69,1391.83 1656,1419.5C 1623.21,1504.28 1566.54,1567.62 1486,1609.5C 1486.06,1569.34 1479.89,1530.17 1467.5,1492C 1457.63,1466.76 1448.46,1441.26 1440,1415.5C 1416.87,1341.48 1411.2,1266.14 1423,1189.5C 1431.58,1143.76 1446.91,1100.43 1469,1059.5C 1488.62,1022.57 1511.96,988.236 1539,956.5C 1548.59,943.667 1556.92,930 1564,915.5C 1611.65,811.219 1646.82,702.885 1669.5,590.5 Z"/></g>
<g><path style="opacity:1" fill="#e63030" d="M 1827.5,821.5 C 1828.65,821.791 1829.32,822.624 1829.5,824C 1826.91,849.16 1827.07,874.326 1830,899.5C 1837.32,949.453 1849.65,998.12 1867,1045.5C 1880.17,1078.85 1894.17,1111.85 1909,1144.5C 1927.41,1193.71 1941.74,1244.05 1952,1295.5C 1964.22,1383.14 1947.55,1464.81 1902,1540.5C 1873.39,1588.46 1836.89,1629.63 1792.5,1664C 1750.05,1691.72 1704.38,1712.72 1655.5,1727C 1568.27,1751.86 1479.27,1763.53 1388.5,1762C 1415.96,1742.21 1438.96,1718.21 1457.5,1690C 1478.24,1677.96 1499.57,1666.96 1521.5,1657C 1620.54,1601.47 1686.71,1519.3 1720,1410.5C 1727.3,1383.66 1730.46,1356.33 1729.5,1328.5C 1727.51,1233.84 1727.01,1139.18 1728,1044.5C 1728.86,995.255 1741.53,949.255 1766,906.5C 1783.58,875.986 1804.08,847.652 1827.5,821.5 Z"/></g>
<g><path style="opacity:1" fill="#657076" d="M 1362.5,1336.5 C 1363.74,1338.21 1364.41,1340.21 1364.5,1342.5C 1362.72,1341.01 1362.05,1339.01 1362.5,1336.5 Z"/></g>
</svg>
