<?xml version="1.0" encoding="UTF-8"?>
<!DOCTYPE svg PUBLIC "-//W3C//DTD SVG 1.1//EN" "http://www.w3.org/Graphics/SVG/1.1/DTD/svg11.dtd">
<svg xmlns="http://www.w3.org/2000/svg" version="1.1" width="2401px" height="2581px" style="shape-rendering:geometricPrecision; text-rendering:geometricPrecision; image-rendering:optimizeQuality; fill-rule:evenodd; clip-rule:evenodd" xmlns:xlink="http://www.w3.org/1999/xlink">
<g><path style="opacity:0.994" fill="#005430" d="M 1186.5,81.5 C 1253.03,84.0489 1316.03,100.216 1375.5,130C 1426.64,156.732 1476.97,184.732 1526.5,214C 1572.51,236.057 1620.84,244.39 1671.5,239C 1697.13,232.345 1722.47,224.678 1747.5,216C 1796.62,198.961 1845.62,181.961 1894.5,165C 1993.76,284.056 2107.26,386.556 2235,472.5C 2223.09,523.561 2206.76,573.228 2186,621.5C 2160.9,675.029 2136.9,729.029 2114,783.5C 2110.05,795.893 2107.39,808.559 2106,821.5C 2102.52,880.422 2108.19,938.422 2123,995.5C 2147.49,1081.3 2176.15,1165.63 2209,1248.5C 2221.2,1278.09 2233.2,1307.75 2245,1337.5C 2309.26,1526.49 2300.93,1712.16 2220,1894.5C 2141.46,2061.73 2013.96,2173.23 1837.5,2229C 1793.83,2242.8 1749.17,2251.47 1703.5,2255C 1626.65,2254.52 1551.32,2264.86 1477.5,2286C 1384.75,2315.26 1305.92,2365.76 1241,2437.5C 1223.26,2458.65 1205.76,2479.98 1188.5,2501.5C 1169.59,2477.75 1150.09,2454.42 1130,2431.5C 1047.88,2344.84 947.714,2290.68 829.5,2269C 777.932,2259.59 725.932,2254.92 673.5,2255C 543.617,2242.36 427.617,2196.02 325.5,2116C 240.976,2045.5 179.143,1958.67 140,1855.5C 74.2953,1682.37 71.962,1508.37 133,1333.5C 172.467,1239.44 207.8,1143.77 239,1046.5C 251.48,1007.91 260.813,968.58 267,928.5C 270.532,895.253 271.866,861.92 271,828.5C 269.293,804.379 263.293,781.379 253,759.5C 227.392,702.618 202.059,645.618 177,588.5C 162.926,550.777 150.759,512.444 140.5,473.5C 268.576,387.29 382.243,284.457 481.5,165C 484.57,165.015 487.57,165.682 490.5,167C 557.195,191.788 624.529,214.788 692.5,236C 716.938,242.037 741.605,243.037 766.5,239C 797.145,234.229 826.479,225.229 854.5,212C 905.706,181.224 958.04,152.224 1011.5,125C 1067.09,99.0179 1125.43,84.5179 1186.5,81.5 Z"/></g>
<g><path style="opacity:1" fill="#00723e" d="M 1180.5,165.5 C 1224.02,166.503 1266.02,175.003 1306.5,191C 1364.81,217.983 1421.14,248.316 1475.5,282C 1534.69,313.215 1597.69,327.215 1664.5,324C 1688.76,321.359 1712.43,316.026 1735.5,308C 1779.84,293.219 1824.01,278.053 1868,262.5C 1949.91,354.104 2040.07,435.937 2138.5,508C 2130.5,532.821 2121.67,557.321 2112,581.5C 2089.82,629.202 2068.15,677.202 2047,725.5C 2025.93,771.879 2017.59,820.545 2022,871.5C 2022.52,912.318 2027.18,952.652 2036,992.5C 2052.75,1057.81 2072.75,1122.15 2096,1185.5C 2116.61,1242.39 2138.61,1298.72 2162,1354.5C 2190.29,1430.24 2204.12,1508.57 2203.5,1589.5C 2202.31,1703.52 2173.81,1810.19 2118,1909.5C 2058.47,2010.35 1974.64,2083.52 1866.5,2129C 1785.7,2163.19 1701.37,2178.52 1613.5,2175C 1545.12,2180.68 1478.78,2195.35 1414.5,2219C 1327.95,2253.26 1252.45,2303.76 1188,2370.5C 1091.17,2269.99 973.335,2208.15 834.5,2185C 809.657,2180.5 784.657,2177.16 759.5,2175C 622.068,2179.07 498.401,2140.4 388.5,2059C 305.577,1992.7 246.743,1909.2 212,1808.5C 159.062,1658.41 159.396,1508.41 213,1358.5C 258.471,1251.09 297.804,1141.43 331,1029.5C 353.493,950.097 359.826,869.43 350,787.5C 344.939,763.984 337.272,741.317 327,719.5C 305.527,671.416 283.861,623.416 262,575.5C 252.813,553.152 244.813,530.485 238,507.5C 335.902,436.352 425.402,355.352 506.5,264.5C 507.333,264.167 508.167,263.833 509,263.5C 565.06,283.409 621.56,301.909 678.5,319C 737.149,329.557 794.482,324.557 850.5,304C 862.246,299.529 873.913,294.862 885.5,290C 938.394,259.05 992.061,229.384 1046.5,201C 1089.18,181.237 1133.85,169.404 1180.5,165.5 Z"/></g>
<g><path style="opacity:1" fill="#fefefe" d="M 1187.5,722.5 C 1231.11,848.484 1274.44,974.651 1317.5,1101C 1456.42,1102.5 1595.42,1103 1734.5,1102.5C 1734.67,1103.82 1734.34,1104.99 1733.5,1106C 1621.59,1185.54 1510.09,1265.71 1399,1346.5C 1398.51,1352.71 1399.51,1358.71 1402,1364.5C 1443.04,1489.28 1483.04,1614.28 1522,1739.5C 1414.55,1662.39 1307.39,1584.89 1200.5,1507C 1196.7,1503.77 1192.37,1501.6 1187.5,1500.5C 1184.47,1500.85 1181.81,1502.01 1179.5,1504C 1068.67,1583.38 957.341,1661.72 845.5,1739C 889.518,1610.61 933.352,1482.11 977,1353.5C 977.667,1351.5 977.667,1349.5 977,1347.5C 974.131,1344.3 970.965,1341.46 967.5,1339C 889.791,1283.94 812.124,1228.94 734.5,1174C 703.108,1151.98 672.108,1129.48 641.5,1106.5C 764.163,1105.03 886.83,1103.86 1009.5,1103C 1024.93,1102.97 1040.26,1102.3 1055.5,1101C 1057.04,1099.42 1058.21,1097.59 1059,1095.5C 1101.75,971.09 1144.58,846.757 1187.5,722.5 Z"/></g>
</svg>
