<?xml version="1.0" encoding="UTF-8"?>
<!DOCTYPE svg PUBLIC "-//W3C//DTD SVG 1.1//EN" "http://www.w3.org/Graphics/SVG/1.1/DTD/svg11.dtd">
<svg xmlns="http://www.w3.org/2000/svg" version="1.1" width="2718px" height="2718px" style="shape-rendering:geometricPrecision; text-rendering:geometricPrecision; image-rendering:optimizeQuality; fill-rule:evenodd; clip-rule:evenodd" xmlns:xlink="http://www.w3.org/1999/xlink">
<g><path style="opacity:0.995" fill="#2d4a98" d="M 234.5,-0.5 C 983.833,-0.5 1733.17,-0.5 2482.5,-0.5C 2568.29,7.46133 2634.46,47.4613 2681,119.5C 2703.91,158.158 2716.08,199.824 2717.5,244.5C 2717.5,986.833 2717.5,1729.17 2717.5,2471.5C 2712.72,2565.26 2670.39,2636.43 2590.5,2685C 2554.85,2704.57 2516.85,2715.41 2476.5,2717.5C 1731.17,2717.5 985.833,2717.5 240.5,2717.5C 148.415,2710.85 78.5818,2668.19 31,2589.5C 13.0813,2556.59 2.5813,2521.59 -0.5,2484.5C -0.5,1733.83 -0.5,983.167 -0.5,232.5C 8.1366,147.028 48.4699,81.1945 120.5,35C 155.881,14.3707 193.881,2.53742 234.5,-0.5 Z"/></g>
<g><path style="opacity:1" fill="#fefefe" d="M 356.5,101.5 C 1023.17,101.333 1689.83,101.5 2356.5,102C 2465.53,112.242 2544.03,166.408 2592,264.5C 2604.69,294.605 2612.36,325.938 2615,358.5C 2615.67,1025.17 2615.67,1691.83 2615,2358.5C 2603.71,2467.99 2548.55,2546.16 2449.5,2593C 2419.74,2605.52 2388.74,2612.86 2356.5,2615C 1689.83,2615.67 1023.17,2615.67 356.5,2615C 263.189,2605.63 191.356,2561.79 141,2483.5C 118.908,2446.14 105.908,2405.81 102,2362.5C 101.333,1693.17 101.333,1023.83 102,354.5C 111.357,264.235 153.524,194.068 228.5,144C 267.748,119.306 310.414,105.14 356.5,101.5 Z"/></g>
<g><path style="opacity:1" fill="#2d4a98" d="M 358.5,151.5 C 1025.17,151.333 1691.83,151.5 2358.5,152C 2432.4,160.181 2489.9,195.014 2531,256.5C 2551.58,289.563 2562.91,325.563 2565,364.5C 2565.67,1024.83 2565.67,1685.17 2565,2345.5C 2560.63,2425.77 2525.13,2487.94 2458.5,2532C 2424.99,2552.13 2388.65,2563.13 2349.5,2565C 1686.83,2565.67 1024.17,2565.67 361.5,2565C 282.295,2557.51 222.128,2520.01 181,2452.5C 164.265,2422.63 154.598,2390.63 152,2356.5C 151.333,1689.83 151.333,1023.17 152,356.5C 162.532,271.888 205.698,210.388 281.5,172C 306.196,161.035 331.863,154.202 358.5,151.5 Z"/></g>
<g><path style="opacity:1" fill="#b0bbd8" d="M 2169.5,541.5 C 1632.17,541.5 1094.83,541.5 557.5,541.5C 557.5,1088.5 557.5,1635.5 557.5,2182.5C 1094.83,2182.5 1632.17,2182.5 2169.5,2182.5C 1632,2183.5 1094.33,2183.83 556.5,2183.5C 556.5,1635.83 556.5,1088.17 556.5,540.5C 1094.33,540.167 1632,540.5 2169.5,541.5 Z"/></g>
<g><path style="opacity:1" fill="#fefefe" d="M 2169.5,541.5 C 2169.5,1088.5 2169.5,1635.5 2169.5,2182.5C 1632.17,2182.5 1094.83,2182.5 557.5,2182.5C 557.5,1635.5 557.5,1088.5 557.5,541.5C 1094.83,541.5 1632.17,541.5 2169.5,541.5 Z"/></g>
<g><path style="opacity:1" fill="#e33120" d="M 1194.5,793.5 C 1308.17,793.5 1421.83,793.5 1535.5,793.5C 1535.5,927.5 1535.5,1061.5 1535.5,1195.5C 1669.83,1195.5 1804.17,1195.5 1938.5,1195.5C 1938.5,1309.17 1938.5,1422.83 1938.5,1536.5C 1804.33,1536.17 1670.33,1536.5 1536.5,1537.5C 1535.5,1671 1535.17,1804.67 1535.5,1938.5C 1421.83,1938.5 1308.17,1938.5 1194.5,1938.5C 1194.5,1804.5 1194.5,1670.5 1194.5,1536.5C 1060.5,1536.5 926.5,1536.5 792.5,1536.5C 792.5,1422.83 792.5,1309.17 792.5,1195.5C 926.5,1195.5 1060.5,1195.5 1194.5,1195.5C 1194.5,1061.5 1194.5,927.5 1194.5,793.5 Z"/></g>
<g><path style="opacity:1" fill="#f7cbc6" d="M 1194.5,793.5 C 1194.5,927.5 1194.5,1061.5 1194.5,1195.5C 1060.5,1195.5 926.5,1195.5 792.5,1195.5C 925.999,1194.5 1059.67,1194.17 1193.5,1194.5C 1193.17,1060.67 1193.5,926.999 1194.5,793.5 Z"/></g>
<g><path style="opacity:1" fill="#f6bab4" d="M 1535.5,793.5 C 1536.5,926.999 1536.83,1060.67 1536.5,1194.5C 1670.67,1194.17 1804.67,1194.5 1938.5,1195.5C 1804.17,1195.5 1669.83,1195.5 1535.5,1195.5C 1535.5,1061.5 1535.5,927.5 1535.5,793.5 Z"/></g>
<g><path style="opacity:1" fill="#f6bab4" d="M 792.5,1536.5 C 926.5,1536.5 1060.5,1536.5 1194.5,1536.5C 1194.5,1670.5 1194.5,1804.5 1194.5,1938.5C 1194.5,1938.83 1194.5,1939.17 1194.5,1939.5C 1193.5,1805.67 1193.17,1671.67 1193.5,1537.5C 1059.67,1537.83 925.999,1537.5 792.5,1536.5 Z"/></g>
<g><path style="opacity:1" fill="#ed776b" d="M 1536.5,1537.5 C 1536.5,1671.5 1536.5,1805.5 1536.5,1939.5C 1422.5,1939.5 1308.5,1939.5 1194.5,1939.5C 1194.5,1939.17 1194.5,1938.83 1194.5,1938.5C 1308.17,1938.5 1421.83,1938.5 1535.5,1938.5C 1535.17,1804.67 1535.5,1671 1536.5,1537.5 Z"/></g>
</svg>
