<?xml version="1.0" encoding="UTF-8"?>
<!DOCTYPE svg PUBLIC "-//W3C//DTD SVG 1.1//EN" "http://www.w3.org/Graphics/SVG/1.1/DTD/svg11.dtd">
<svg xmlns="http://www.w3.org/2000/svg" version="1.1" width="2717px" height="2718px" style="shape-rendering:geometricPrecision; text-rendering:geometricPrecision; image-rendering:optimizeQuality; fill-rule:evenodd; clip-rule:evenodd" xmlns:xlink="http://www.w3.org/1999/xlink">
<g><path style="opacity:0.996" fill="#2d4a98" d="M 234.5,-0.5 C 983.5,-0.5 1732.5,-0.5 2481.5,-0.5C 2573.48,8.21987 2642.31,52.5532 2688,132.5C 2703.89,163.083 2713.39,195.416 2716.5,229.5C 2716.5,981.833 2716.5,1734.17 2716.5,2486.5C 2707.46,2569.66 2668.13,2634.16 2598.5,2680C 2560.89,2702.73 2520.22,2715.23 2476.5,2717.5C 1730.83,2717.5 985.167,2717.5 239.5,2717.5C 162.965,2712.65 100.465,2680.65 52,2621.5C 22.0393,2582.12 4.53927,2537.79 -0.5,2488.5C -0.5,1735.17 -0.5,981.833 -0.5,228.5C 11.8712,128.3 64.2046,57.8005 156.5,17C 181.78,7.34341 207.78,1.51008 234.5,-0.5 Z"/></g>
<g><path style="opacity:1" fill="#fdfdfe" d="M 352.5,101.5 C 1020.17,101.333 1687.83,101.5 2355.5,102C 2454.38,110.33 2529.21,156.83 2580,241.5C 2598.75,275.155 2610.08,311.155 2614,349.5C 2614.67,1021.17 2614.67,1692.83 2614,2364.5C 2603.49,2457.08 2558.99,2527.92 2480.5,2577C 2441.85,2599.55 2400.18,2612.22 2355.5,2615C 1690.5,2615.67 1025.5,2615.67 360.5,2615C 266.235,2607.31 193.402,2564.14 142,2485.5C 116.632,2443.39 102.965,2397.72 101,2348.5C 100.333,1686.17 100.333,1023.83 101,361.5C 109.46,261.116 156.96,185.616 243.5,135C 277.723,116.534 314.057,105.368 352.5,101.5 Z"/></g>
<g><path style="opacity:1" fill="#2d4a98" d="M 357.5,151.5 C 1024.5,151.333 1691.5,151.5 2358.5,152C 2445.51,162.373 2508.01,206.873 2546,285.5C 2555.42,307.615 2561.42,330.615 2564,354.5C 2564.67,1022.83 2564.67,1691.17 2564,2359.5C 2555.92,2434.84 2520.09,2492.67 2456.5,2533C 2424.97,2551.39 2390.97,2562.05 2354.5,2565C 1690.17,2565.67 1025.83,2565.67 361.5,2565C 274.463,2556.42 211.297,2513.26 172,2435.5C 161.599,2412.57 154.932,2388.57 152,2363.5C 151.333,1693.5 151.333,1023.5 152,353.5C 161.456,279.433 197.622,222.599 260.5,183C 290.584,165.236 322.917,154.736 357.5,151.5 Z"/></g>
<g><path style="opacity:1" fill="#fefefe" d="M 2195.5,1791.5 C 2195.61,1792.12 2195.94,1792.62 2196.5,1793C 2071.17,1793.5 1945.83,1793.67 1820.5,1793.5C 1724.08,1585.32 1628.74,1376.66 1534.5,1167.5C 1444.79,1376.25 1355.12,1584.91 1265.5,1793.5C 1010.33,1793.83 755.333,1793.5 500.5,1792.5C 544.654,1710.19 588.821,1627.86 633,1545.5C 713.92,1404 794.586,1262.33 875,1120.5C 963.474,978.115 1089.31,886.282 1252.5,845C 1369.18,819.335 1480.18,834.669 1585.5,891C 1658.43,931.559 1722.27,983.726 1777,1047.5C 1798.28,1072.07 1817.62,1098.07 1835,1125.5C 1955.45,1347.39 2075.61,1569.39 2195.5,1791.5 Z"/></g>
<g><path style="opacity:1" fill="#fefefe" d="M 499.5,1792.5 C 463.264,1793.83 426.931,1793.83 390.5,1792.5C 368.832,1711.16 347.166,1629.83 325.5,1548.5C 343.667,1548.17 361.833,1547.83 380,1547.5C 398.551,1547.51 416.885,1548.17 435,1549.5C 456.475,1630.47 477.975,1711.47 499.5,1792.5 Z"/></g>
<g><path style="opacity:1" fill="#fefefe" d="M 2305.5,1793.5 C 2269.15,1794.16 2233.15,1793.49 2197.5,1791.5C 2218.82,1710.54 2240.32,1629.54 2262,1548.5C 2298.43,1547.34 2334.93,1547.17 2371.5,1548C 2349.41,1629.87 2327.41,1711.7 2305.5,1793.5 Z"/></g>
<g><path style="opacity:1" fill="#95a4cb" d="M 390.5,1792.5 C 426.931,1793.83 463.264,1793.83 499.5,1792.5C 499.833,1792.5 500.167,1792.5 500.5,1792.5C 755.333,1793.5 1010.33,1793.83 1265.5,1793.5C 1119.83,1794.17 974,1794.5 828,1794.5C 681.832,1794.5 535.998,1793.83 390.5,1792.5 Z"/></g>
<g><path style="opacity:1" fill="#95a4cb" d="M 2195.5,1791.5 C 2196.17,1791.5 2196.83,1791.5 2197.5,1791.5C 2233.15,1793.49 2269.15,1794.16 2305.5,1793.5C 2143.83,1794.83 1982.17,1794.83 1820.5,1793.5C 1945.83,1793.67 2071.17,1793.5 2196.5,1793C 2195.94,1792.62 2195.61,1792.12 2195.5,1791.5 Z"/></g>
</svg>
