<?xml version="1.0" encoding="UTF-8"?>
<!DOCTYPE svg PUBLIC "-//W3C//DTD SVG 1.1//EN" "http://www.w3.org/Graphics/SVG/1.1/DTD/svg11.dtd">
<svg xmlns="http://www.w3.org/2000/svg" version="1.1" width="2718px" height="2718px" style="shape-rendering:geometricPrecision; text-rendering:geometricPrecision; image-rendering:optimizeQuality; fill-rule:evenodd; clip-rule:evenodd" xmlns:xlink="http://www.w3.org/1999/xlink">
<g><path style="opacity:0.996" fill="#2d4a98" d="M 235.5,-0.5 C 984.5,-0.5 1733.5,-0.5 2482.5,-0.5C 2572.78,7.70976 2640.95,50.7098 2687,128.5C 2703.84,159.571 2714.01,192.571 2717.5,227.5C 2717.5,981.167 2717.5,1734.83 2717.5,2488.5C 2708.37,2568.61 2670.7,2631.45 2604.5,2677C 2565.65,2701.67 2523.31,2715.17 2477.5,2717.5C 1731.83,2717.5 986.167,2717.5 240.5,2717.5C 149.63,2710.83 80.4638,2668.83 33,2591.5C 14.4678,2558.9 3.80116,2523.9 1,2486.5C 0.00325745,1730.82 0.336591,975.151 2,219.5C 16.1922,126.576 65.6922,60.0764 150.5,20C 177.858,8.57603 206.191,1.74269 235.5,-0.5 Z"/></g>
<g><path style="opacity:1" fill="#fdfdfe" d="M 361.5,101.5 C 1027.83,101.333 1694.17,101.5 2360.5,102C 2460.93,112.102 2535.76,160.935 2585,248.5C 2604.41,285.457 2614.74,324.79 2616,366.5C 2616.67,1029.5 2616.67,1692.5 2616,2355.5C 2608.36,2447.33 2566.86,2519.17 2491.5,2571C 2450.57,2596.86 2405.91,2611.53 2357.5,2615C 1690.83,2615.67 1024.17,2615.67 357.5,2615C 266.549,2605.94 195.715,2563.77 145,2488.5C 121.231,2450.19 107.231,2408.53 103,2363.5C 102.333,1693.17 102.333,1022.83 103,352.5C 113.028,261.567 156.195,191.4 232.5,142C 272.22,117.703 315.22,104.203 361.5,101.5 Z"/></g>
<g><path style="opacity:1" fill="#2d4a98" d="M 358.5,151.5 C 1024.17,151.333 1689.83,151.5 2355.5,152C 2445.29,161.115 2509.45,206.281 2548,287.5C 2556.95,308.293 2562.62,329.959 2565,352.5C 2565.67,1021.83 2565.67,1691.17 2565,2360.5C 2556.78,2432.98 2522.62,2489.48 2462.5,2530C 2428.28,2551.52 2390.95,2563.18 2350.5,2565C 1687.83,2565.67 1025.17,2565.67 362.5,2565C 290.943,2558.32 234.11,2526.15 192,2468.5C 170.302,2436.08 157.302,2400.41 153,2361.5C 152.333,1691.83 152.333,1022.17 153,352.5C 165.201,268.879 209.034,208.379 284.5,171C 308.365,161.035 333.032,154.535 358.5,151.5 Z"/></g>
<g><path style="opacity:1" fill="#fefefe" d="M 1961.5,2040.5 C 1712.17,2040.5 1462.83,2040.5 1213.5,2040.5C 1213.5,2016.83 1213.5,1993.17 1213.5,1969.5C 1233.84,1938.83 1254.18,1908.16 1274.5,1877.5C 1252.77,1779.81 1230.94,1682.15 1209,1584.5C 1189.16,1635.18 1168.5,1685.51 1147,1735.5C 1118.36,1793.47 1081.2,1845.3 1035.5,1891C 956.837,1962.41 865.837,1984.41 762.5,1957C 673.509,1932.01 618.676,1874.51 598,1784.5C 591.489,1740.79 596.489,1698.45 613,1657.5C 619.559,1641.16 626.892,1625.16 635,1609.5C 672.522,1555.15 706.522,1498.49 737,1439.5C 765.495,1375.52 774.328,1308.85 763.5,1239.5C 798.5,1238.53 833.5,1237.53 868.5,1236.5C 876.99,1323.24 864.823,1406.9 832,1487.5C 819.522,1517.46 805.188,1546.46 789,1574.5C 773.39,1597.78 757.39,1620.78 741,1643.5C 717.904,1679.45 706.57,1718.79 707,1761.5C 715.48,1809.31 742.98,1840.15 789.5,1854C 864.538,1872.32 927.371,1852.49 978,1794.5C 1006.92,1750.34 1035.58,1706 1064,1661.5C 1076.85,1626.44 1089.85,1591.44 1103,1556.5C 1120.2,1486.7 1137.87,1417.03 1156,1347.5C 1160.43,1275.15 1165.1,1202.82 1170,1130.5C 1170.33,950.833 1170.67,771.167 1171,591.5C 1176.71,551.943 1198.54,525.776 1236.5,513C 1241.79,511.785 1247.12,510.785 1252.5,510C 1475.5,509.333 1698.5,509.333 1921.5,510C 1957.63,515.137 1983.13,534.304 1998,567.5C 2000.45,573.63 2002.12,579.963 2003,586.5C 2003.67,866.833 2003.67,1147.17 2003,1427.5C 1969.89,1578.34 1936.72,1729.18 1903.5,1880C 1922.02,1910.19 1941.19,1940.03 1961,1969.5C 1961.5,1993.16 1961.67,2016.83 1961.5,2040.5 Z"/></g>
<g><path style="opacity:1" fill="#fefefe" d="M 1054.5,542.5 C 1055.83,542.5 1057.17,542.5 1058.5,542.5C 1058.84,579.502 1059.01,616.502 1059,653.5C 991.79,693.779 954.123,753.113 946,831.5C 945.5,928.166 945.333,1024.83 945.5,1121.5C 885.167,1121.5 824.833,1121.5 764.5,1121.5C 764.333,1032.5 764.5,943.499 765,854.5C 773.595,765.139 811.428,690.972 878.5,632C 929.568,587.631 988.235,557.798 1054.5,542.5 Z"/></g>
<g><path style="opacity:1" fill="#2d4a98" d="M 1350.5,654.5 C 1508.17,654.333 1665.83,654.5 1823.5,655C 1844.24,660.075 1857.41,672.908 1863,693.5C 1863.67,830.5 1863.67,967.5 1863,1104.5C 1858.5,1127.67 1844.67,1141.5 1821.5,1146C 1664.5,1146.67 1507.5,1146.67 1350.5,1146C 1329.49,1140.32 1316.66,1126.82 1312,1105.5C 1311.33,968.833 1311.33,832.167 1312,695.5C 1315.25,679.81 1323.75,667.976 1337.5,660C 1341.92,658.115 1346.26,656.281 1350.5,654.5 Z"/></g>
<g><path style="opacity:1" fill="#cad1e4" d="M 1213.5,1969.5 C 1213.5,1993.17 1213.5,2016.83 1213.5,2040.5C 1462.83,2040.5 1712.17,2040.5 1961.5,2040.5C 1712,2041.5 1462.33,2041.83 1212.5,2041.5C 1212.17,2017.33 1212.5,1993.33 1213.5,1969.5 Z"/></g>
<g><path style="opacity:1" fill="#7a8bbd" d="M 2259.5,2234.5 C 2259.5,2197.83 2259.5,2161.17 2259.5,2124.5C 1659.17,2124.5 1058.83,2124.5 458.5,2124.5C 458.5,2161.17 458.5,2197.83 458.5,2234.5C 457.502,2197.67 457.168,2160.67 457.5,2123.5C 1058.5,2123.5 1659.5,2123.5 2260.5,2123.5C 2260.83,2160.67 2260.5,2197.67 2259.5,2234.5 Z"/></g>
<g><path style="opacity:1" fill="#fefffe" d="M 2259.5,2234.5 C 1659.17,2234.5 1058.83,2234.5 458.5,2234.5C 458.5,2197.83 458.5,2161.17 458.5,2124.5C 1058.83,2124.5 1659.17,2124.5 2259.5,2124.5C 2259.5,2161.17 2259.5,2197.83 2259.5,2234.5 Z"/></g>
</svg>
