<?xml version="1.0" encoding="UTF-8"?>
<!DOCTYPE svg PUBLIC "-//W3C//DTD SVG 1.1//EN" "http://www.w3.org/Graphics/SVG/1.1/DTD/svg11.dtd">
<svg xmlns="http://www.w3.org/2000/svg" version="1.1" width="2530px" height="2584px" style="shape-rendering:geometricPrecision; text-rendering:geometricPrecision; image-rendering:optimizeQuality; fill-rule:evenodd; clip-rule:evenodd" xmlns:xlink="http://www.w3.org/1999/xlink">
<g><path style="opacity:0.994" fill="#000000" d="M 1253.5,126.5 C 1552.28,119.471 1816.28,210.305 2045.5,399C 2256.47,579.641 2388.63,807.141 2442,1081.5C 2488.63,1351.69 2447.63,1607.69 2319,1849.5C 2193.58,2074.29 2014.41,2241.46 1781.5,2351C 1546.85,2455.81 1303.51,2482.48 1051.5,2431C 799.619,2374.52 588.452,2250.35 418,2058.5C 221.407,1828.79 125.74,1561.79 131,1257.5C 142.763,964.329 247.096,710.329 444,495.5C 634.673,295.069 867.84,175.235 1143.5,136C 1180.21,131.497 1216.87,128.33 1253.5,126.5 Z"/></g>
<g><path style="opacity:1" fill="#fddc00" d="M 1725.5,298.5 C 1657.63,386.558 1593.8,477.558 1534,571.5C 1520.61,593.386 1507.44,615.386 1494.5,637.5C 1393.65,808.888 1311.98,989.221 1249.5,1178.5C 1237.63,1215.28 1226.46,1252.28 1216,1289.5C 1191.89,1382.59 1165.89,1475.25 1138,1567.5C 1131.01,1587.15 1124.17,1606.82 1117.5,1626.5C 1071.81,1748.55 1014.48,1864.55 945.5,1974.5C 889.435,2064.25 826.435,2148.91 756.5,2228.5C 635.146,2159.02 530.979,2069.02 444,1958.5C 293.67,1763.37 217.17,1542.03 214.5,1294.5C 215.971,1026.17 302.805,790.173 475,586.5C 651.169,385.462 872.003,263.629 1137.5,221C 1340.84,192.719 1536.84,218.552 1725.5,298.5 Z"/></g>
<g><path style="opacity:1" fill="#1f3246" d="M 1232.5,221.5 C 1339.84,218.945 1443.51,237.112 1543.5,276C 1546.38,276.725 1549.04,276.225 1551.5,274.5C 1551.92,276.353 1552.25,278.187 1552.5,280C 1582.02,294.928 1611.36,310.095 1640.5,325.5C 1581.63,434.08 1522.63,542.58 1463.5,651C 1460.49,651.201 1457.49,650.868 1454.5,650C 1402.93,634.693 1351.27,619.86 1299.5,605.5C 1311.35,471.422 1289.02,343.422 1232.5,221.5 Z"/></g>
<g><path style="opacity:1" fill="#1f3246" d="M 1081.5,266.5 C 1112.53,266.063 1143.53,266.563 1174.5,268C 1223.11,348.74 1247.44,436.406 1247.5,531C 1246.75,555.578 1245.08,580.078 1242.5,604.5C 1198.84,609.333 1155.17,613.833 1111.5,618C 1049.53,496.518 961.861,397.685 848.5,321.5C 902.341,298.278 958.341,282.445 1016.5,274C 1038.23,270.696 1059.9,268.196 1081.5,266.5 Z"/></g>
<g><path style="opacity:1" fill="#c59819" d="M 1725.5,298.5 C 1927.47,388.401 2088.64,526.068 2209,711.5C 2216.69,723.561 2223.86,735.894 2230.5,748.5C 2226.02,749.648 2221.35,749.815 2216.5,749C 1973.23,728.041 1732.56,690.874 1494.5,637.5C 1507.44,615.386 1520.61,593.386 1534,571.5C 1593.8,477.558 1657.63,386.558 1725.5,298.5 Z"/></g>
<g><path style="opacity:1" fill="#1f3246" d="M 809.5,374.5 C 923.18,434.017 1008.01,521.683 1064,637.5C 1068.3,647.276 1072.47,657.109 1076.5,667C 1076.36,667.772 1076.02,668.439 1075.5,669C 1022.83,690.333 970.167,711.667 917.5,733C 916.167,733.667 914.833,733.667 913.5,733C 803.872,646.495 682.539,580.162 549.5,534C 601.211,473.987 663.878,428.987 737.5,399C 761.189,389.493 785.189,381.327 809.5,374.5 Z"/></g>
<g><path style="opacity:1" fill="#1f3246" d="M 550.5,597.5 C 685.962,632.394 807.296,693.894 914.5,782C 882.899,816.937 850.565,851.271 817.5,885C 738.005,872.353 658.005,864.019 577.5,860C 492.282,856.736 407.282,859.07 322.5,867C 378.708,760.609 454.708,670.776 550.5,597.5 Z"/></g>
<g><path style="opacity:1" fill="#987021" d="M 1494.5,637.5 C 1732.56,690.874 1973.23,728.041 2216.5,749C 2221.35,749.815 2226.02,749.648 2230.5,748.5C 2318.84,900.041 2367.34,1063.71 2376,1239.5C 2377.5,1267.17 2377.67,1294.83 2376.5,1322.5C 2170.7,1317.42 1965.7,1301.92 1761.5,1276C 1632.4,1259.71 1504.4,1237.37 1377.5,1209C 1334.84,1198.83 1292.17,1188.67 1249.5,1178.5C 1311.98,989.221 1393.65,808.888 1494.5,637.5 Z"/></g>
<g><path style="opacity:1" fill="#1f3246" d="M 1178.5,673.5 C 1251.17,668.668 1321.84,678.835 1390.5,704C 1394.65,705.576 1398.65,707.409 1402.5,709.5C 1379.42,762.648 1356.09,815.648 1332.5,868.5C 1300.48,788.159 1249.15,723.159 1178.5,673.5 Z"/></g>
<g><path style="opacity:1" fill="#1f3246" d="M 1123.5,717.5 C 1143.23,715.688 1160.56,721.188 1175.5,734C 1193.26,750.742 1208.76,769.242 1222,789.5C 1240.08,821.33 1258.41,852.997 1277,884.5C 1277.69,885.332 1277.52,885.998 1276.5,886.5C 1256.84,893.665 1237.01,900.332 1217,906.5C 1132.85,866.085 1044.68,838.251 952.5,823C 984.167,796.667 1015.83,770.333 1047.5,744C 1071.69,731.382 1097.02,722.549 1123.5,717.5 Z"/></g>
<g><path style="opacity:1" fill="#1f3246" d="M 949.5,881.5 C 1032.35,877.584 1111.01,893.75 1185.5,930C 1176.96,942.255 1168.29,954.421 1159.5,966.5C 1059.18,992.167 968.177,1036.17 886.5,1098.5C 880.702,1039.32 891.535,983.324 919,930.5C 928.187,913.439 938.354,897.106 949.5,881.5 Z"/></g>
<g><path style="opacity:1" fill="#1f3246" d="M 539.5,905.5 C 643.064,900.867 744.397,913.534 843.5,943.5C 828.167,988.5 812.833,1033.5 797.5,1078.5C 650.104,1118.6 504.437,1164.44 360.5,1216C 318.416,1231.25 276.583,1247.08 235,1263.5C 263.206,1152.05 300.706,1043.72 347.5,938.5C 388.615,926.042 430.615,917.209 473.5,912C 495.618,909.481 517.618,907.315 539.5,905.5 Z"/></g>
<g><path style="opacity:1" fill="#1f3246" d="M 1149.5,1021.5 C 1150.5,1021.41 1151.33,1021.75 1152,1022.5C 1173.63,1060.92 1195.13,1099.42 1216.5,1138C 1158.85,1215.47 1100.85,1292.64 1042.5,1369.5C 984.991,1310.37 943.658,1241.2 918.5,1162C 936.93,1139.9 957.597,1120.23 980.5,1103C 1031.57,1065.13 1087.91,1037.96 1149.5,1021.5 Z"/></g>
<g><path style="opacity:1" fill="#1f3246" d="M 813.5,1136.5 C 816.119,1136.23 818.619,1136.56 821,1137.5C 829.534,1187.61 837.701,1237.77 845.5,1288C 845.167,1289.17 844.833,1290.33 844.5,1291.5C 645.407,1396.02 479.574,1539.35 347,1721.5C 317.219,1580.89 306.719,1438.89 315.5,1295.5C 473.927,1218.4 639.927,1165.4 813.5,1136.5 Z"/></g>
<g><path style="opacity:1" fill="#1f3246" d="M 1228.5,1162.5 C 1229.04,1162.56 1229.38,1162.89 1229.5,1163.5C 1197.69,1260.6 1166.69,1357.93 1136.5,1455.5C 1103.57,1448.73 1081.73,1429.4 1071,1397.5C 1070.01,1394.87 1069.67,1392.21 1070,1389.5C 1123.05,1313.95 1175.89,1238.29 1228.5,1162.5 Z"/></g>
<g><path style="opacity:1" fill="#8b3b1b" d="M 1249.5,1178.5 C 1292.17,1188.67 1334.84,1198.83 1377.5,1209C 1504.4,1237.37 1632.4,1259.71 1761.5,1276C 1965.7,1301.92 2170.7,1317.42 2376.5,1322.5C 2371.89,1486.29 2332.22,1640.96 2257.5,1786.5C 2189.46,1784.77 2121.46,1781.93 2053.5,1778C 1927.42,1769.54 1801.42,1759.88 1675.5,1749C 1548.14,1738.21 1422.48,1717.54 1298.5,1687C 1236.77,1670.92 1176.44,1650.76 1117.5,1626.5C 1124.17,1606.82 1131.01,1587.15 1138,1567.5C 1165.89,1475.25 1191.89,1382.59 1216,1289.5C 1226.46,1252.28 1237.63,1215.28 1249.5,1178.5 Z"/></g>
<g><path style="opacity:1" fill="#1f3246" d="M 914.5,1304.5 C 917.027,1306.51 918.861,1309.18 920,1312.5C 953.688,1387.89 992.021,1460.55 1035,1530.5C 1053.01,1558.66 1071.17,1586.66 1089.5,1614.5C 1008.14,1826.37 894.971,2018.37 750,2190.5C 627.397,2062.09 533.397,1914.76 468,1748.5C 462.068,1732.2 456.235,1715.87 450.5,1699.5C 560.1,1559.03 690.1,1441.87 840.5,1348C 865.065,1333.22 889.732,1318.72 914.5,1304.5 Z"/></g>
<g><path style="opacity:1" fill="#1b8683" d="M 1117.5,1626.5 C 1176.44,1650.76 1236.77,1670.92 1298.5,1687C 1422.48,1717.54 1548.14,1738.21 1675.5,1749C 1801.42,1759.88 1927.42,1769.54 2053.5,1778C 2121.46,1781.93 2189.46,1784.77 2257.5,1786.5C 2194.12,1908.16 2110.78,2014.49 2007.5,2105.5C 1847.03,2099.77 1686.37,2095.61 1525.5,2093C 1409.27,2089.83 1294.27,2076.49 1180.5,2053C 1099.74,2035.8 1021.74,2010.3 946.5,1976.5C 945.702,1976.04 945.369,1975.38 945.5,1974.5C 1014.48,1864.55 1071.81,1748.55 1117.5,1626.5 Z"/></g>
<g><path style="opacity:1" fill="#64861b" d="M 945.5,1974.5 C 945.369,1975.38 945.702,1976.04 946.5,1976.5C 1021.74,2010.3 1099.74,2035.8 1180.5,2053C 1294.27,2076.49 1409.27,2089.83 1525.5,2093C 1686.37,2095.61 1847.03,2099.77 2007.5,2105.5C 1816.75,2270.08 1594.75,2358.91 1341.5,2372C 1145.11,2379.65 960.105,2337.65 786.5,2246C 776.273,2240.39 766.273,2234.56 756.5,2228.5C 826.435,2148.91 889.435,2064.25 945.5,1974.5 Z"/></g>
</svg>
