<?xml version="1.0" encoding="UTF-8"?>
<!DOCTYPE svg PUBLIC "-//W3C//DTD SVG 1.1//EN" "http://www.w3.org/Graphics/SVG/1.1/DTD/svg11.dtd">
<svg xmlns="http://www.w3.org/2000/svg" version="1.1" width="2718px" height="2718px" style="shape-rendering:geometricPrecision; text-rendering:geometricPrecision; image-rendering:optimizeQuality; fill-rule:evenodd; clip-rule:evenodd" xmlns:xlink="http://www.w3.org/1999/xlink">
<g><path style="opacity:0.994" fill="#7e401b" d="M 234.5,-0.5 C 983.833,-0.5 1733.17,-0.5 2482.5,-0.5C 2567.3,7.4706 2633.14,46.8039 2680,117.5C 2702.07,153.885 2714.57,193.218 2717.5,235.5C 2717.5,984.167 2717.5,1732.83 2717.5,2481.5C 2710.49,2564.04 2673.16,2628.87 2605.5,2676C 2566.11,2701.19 2523.11,2715.02 2476.5,2717.5C 1731.17,2717.5 985.833,2717.5 240.5,2717.5C 149.04,2710.71 79.5402,2668.38 32,2590.5C 12.297,2555.24 1.46368,2517.58 -0.5,2477.5C -0.5,1731.17 -0.5,984.833 -0.5,238.5C 6.37372,149.552 47.3737,81.3853 122.5,34C 157.295,13.8992 194.628,2.39925 234.5,-0.5 Z"/></g>
<g><path style="opacity:1" fill="#fefefe" d="M 353.5,101.5 C 1021.17,101.333 1688.83,101.5 2356.5,102C 2447.74,109.517 2519.24,150.684 2571,225.5C 2598.08,266.734 2612.74,312.068 2615,361.5C 2615.67,1026.17 2615.67,1690.83 2615,2355.5C 2606.92,2455.16 2560.09,2530.33 2474.5,2581C 2437.7,2601.06 2398.37,2612.4 2356.5,2615C 1689.83,2615.67 1023.17,2615.67 356.5,2615C 263.806,2605.76 192.306,2562.26 142,2484.5C 118.63,2445.36 105.297,2403.03 102,2357.5C 101.333,1690.17 101.333,1022.83 102,355.5C 113.831,250.919 166.331,174.753 259.5,127C 289.554,113.251 320.888,104.751 353.5,101.5 Z"/></g>
<g><path style="opacity:1" fill="#7e401b" d="M 358.5,151.5 C 1025.17,151.333 1691.83,151.5 2358.5,152C 2447.18,162.395 2510.35,207.895 2548,288.5C 2557.11,310.289 2562.78,332.956 2565,356.5C 2565.67,1023.5 2565.67,1690.5 2565,2357.5C 2555.4,2443.95 2511.9,2506.45 2434.5,2545C 2407.52,2557.33 2379.18,2564 2349.5,2565C 1687.17,2565.67 1024.83,2565.67 362.5,2565C 280.522,2556.96 219.022,2517.46 178,2446.5C 163.273,2417.93 154.606,2387.6 152,2355.5C 151.333,1690.83 151.333,1026.17 152,361.5C 159.761,281.484 197.927,220.984 266.5,180C 295.283,163.978 325.949,154.478 358.5,151.5 Z"/></g>
<g><path style="opacity:1" fill="#fefefe" d="M 955.5,545.5 C 1240.17,545.333 1524.83,545.5 1809.5,546C 1860.09,557.014 1873.59,585.514 1850,631.5C 1839.98,648.025 1828.14,663.192 1814.5,677C 1769.57,714.047 1724.74,751.214 1680,788.5C 1650.1,868.968 1646.43,950.635 1669,1033.5C 1672.24,1044.9 1676.08,1056.06 1680.5,1067C 1801.98,1100.12 1905.14,1162.62 1990,1254.5C 2118.29,1402.03 2156.95,1570.7 2106,1760.5C 2059.28,1698.78 2012.95,1636.78 1967,1574.5C 1929.32,1528.48 1886.82,1487.65 1839.5,1452C 1783.72,1416.55 1729.06,1418.21 1675.5,1457C 1665.65,1464.43 1655.98,1472.09 1646.5,1480C 1620.67,1504.5 1595.5,1529.67 1571,1555.5C 1523.31,1618.87 1472.98,1680.2 1420,1739.5C 1406.24,1754.76 1391.08,1768.26 1374.5,1780C 1360.07,1787.89 1346.07,1787.22 1332.5,1778C 1314.47,1763.97 1297.63,1748.47 1282,1731.5C 1258.29,1704.8 1234.96,1677.8 1212,1650.5C 1185.33,1616.5 1158.67,1582.5 1132,1548.5C 1101.07,1515.24 1068.57,1483.74 1034.5,1454C 1019.39,1441.61 1002.39,1432.61 983.5,1427C 964.931,1421.75 946.598,1422.42 928.5,1429C 909.589,1437.95 892.589,1449.62 877.5,1464C 817.391,1523.43 760.225,1585.26 706,1649.5C 665.624,1699.54 627.957,1751.54 593,1805.5C 538.734,1619.88 566.067,1447.55 675,1288.5C 727.724,1215.27 792.891,1155.93 870.5,1110.5C 787.243,1071.4 732.41,1007.74 706,919.5C 680.748,818.211 700.748,727.211 766,646.5C 816.703,589.564 879.869,555.897 955.5,545.5 Z"/></g>
<g><path style="opacity:1" fill="#7e401b" d="M 967.5,710.5 C 1027.27,706.457 1071.44,730.457 1100,782.5C 1121.04,831.402 1116.04,877.402 1085,920.5C 1055.23,956.21 1017.07,972.043 970.5,968C 917.419,959.58 881.919,930.08 864,879.5C 848.705,824.155 862.205,777.322 904.5,739C 923.076,724.044 944.076,714.544 967.5,710.5 Z"/></g>
<g><path style="opacity:1" fill="#fefefe" d="M 944.5,1583.5 C 959.265,1582.15 972.932,1585.32 985.5,1593C 1001.53,1605.02 1016.36,1618.52 1030,1633.5C 1082,1694.49 1131.34,1757.49 1178,1822.5C 1186.62,1833.46 1195.62,1844.13 1205,1854.5C 1230.6,1879.77 1257.1,1903.94 1284.5,1927C 1302.76,1941.8 1323.43,1951.8 1346.5,1957C 1369.32,1959.95 1390.65,1955.62 1410.5,1944C 1421.52,1936.82 1432.19,1929.16 1442.5,1921C 1465.03,1900.14 1486.53,1878.3 1507,1855.5C 1522.67,1837.83 1538.33,1820.17 1554,1802.5C 1577.43,1773.32 1601.09,1744.32 1625,1715.5C 1641.97,1696.86 1659.3,1678.53 1677,1660.5C 1696.35,1640.14 1717.18,1621.64 1739.5,1605C 1752.17,1596.75 1765.83,1594.42 1780.5,1598C 1788.95,1600.22 1796.95,1603.56 1804.5,1608C 1814.45,1614.95 1824.12,1622.28 1833.5,1630C 1858.07,1653.07 1880.91,1677.57 1902,1703.5C 1953.06,1766.72 2001.23,1832.06 2046.5,1899.5C 1961.37,2042.44 1840.03,2141.27 1682.5,2196C 1439.17,2196.67 1195.83,2196.67 952.5,2196C 825.058,2142.55 725.391,2056.88 653.5,1939C 716.383,1841.78 783.549,1747.62 855,1656.5C 870.124,1638.38 886.291,1621.21 903.5,1605C 915.55,1594.64 929.216,1587.48 944.5,1583.5 Z"/></g>
</svg>
