<?xml version="1.0" encoding="UTF-8"?>
<!DOCTYPE svg PUBLIC "-//W3C//DTD SVG 1.1//EN" "http://www.w3.org/Graphics/SVG/1.1/DTD/svg11.dtd">
<svg xmlns="http://www.w3.org/2000/svg" version="1.1" width="2717px" height="2718px" style="shape-rendering:geometricPrecision; text-rendering:geometricPrecision; image-rendering:optimizeQuality; fill-rule:evenodd; clip-rule:evenodd" xmlns:xlink="http://www.w3.org/1999/xlink">
<g><path style="opacity:0.996" fill="#2d4a98" d="M 234.5,-0.5 C 983.833,-0.5 1733.17,-0.5 2482.5,-0.5C 2570.46,8.04366 2637.63,49.7103 2684,124.5C 2701.6,156.13 2712.43,189.797 2716.5,225.5C 2716.5,980.833 2716.5,1736.17 2716.5,2491.5C 2705.99,2574.13 2665.66,2637.63 2595.5,2682C 2558.64,2703.63 2518.97,2715.46 2476.5,2717.5C 1731.17,2717.5 985.833,2717.5 240.5,2717.5C 150.737,2711.22 81.9033,2670.22 34,2594.5C 14.1071,2559.99 2.60706,2522.99 -0.5,2483.5C -0.5,1733.5 -0.5,983.5 -0.5,233.5C 7.84475,147.612 48.1781,81.4453 120.5,35C 155.879,14.3713 193.879,2.53796 234.5,-0.5 Z"/></g>
<g><path style="opacity:1" fill="#fefefe" d="M 356.5,101.5 C 1023.17,101.333 1689.83,101.5 2356.5,102C 2450.83,110.062 2523.67,153.562 2575,232.5C 2598.56,270.862 2611.9,312.528 2615,357.5C 2615.67,1023.17 2615.67,1688.83 2615,2354.5C 2607.6,2448.17 2565.1,2521.01 2487.5,2573C 2445.54,2598.87 2399.87,2612.87 2350.5,2615C 1685.83,2615.67 1021.17,2615.67 356.5,2615C 264.71,2605.72 193.544,2562.88 143,2486.5C 118.904,2446.88 105.237,2403.88 102,2357.5C 101.333,1689.17 101.333,1020.83 102,352.5C 112.057,263.194 154.224,193.694 228.5,144C 267.755,119.304 310.422,105.137 356.5,101.5 Z"/></g>
<g><path style="opacity:1" fill="#2d4a98" d="M 358.5,151.5 C 1025.17,151.333 1691.83,151.5 2358.5,152C 2434.97,160.289 2493.47,196.789 2534,261.5C 2552.6,292.964 2562.93,326.964 2565,363.5C 2565.67,1024.5 2565.67,1685.5 2565,2346.5C 2560.86,2426.65 2525.36,2488.48 2458.5,2532C 2424.98,2552.13 2388.64,2563.13 2349.5,2565C 1686.83,2565.67 1024.17,2565.67 361.5,2565C 284.536,2557.94 225.369,2522.11 184,2457.5C 166.122,2427.2 155.455,2394.53 152,2359.5C 151.333,1691.17 151.333,1022.83 152,354.5C 163.116,270.718 206.283,209.884 281.5,172C 306.196,161.035 331.863,154.202 358.5,151.5 Z"/></g>
<g><path style="opacity:1" fill="#fefefe" d="M 1335.5,399.5 C 1421.59,396.679 1494.09,426.346 1553,488.5C 1600.25,545.94 1619.91,611.94 1612,686.5C 1601.67,771.433 1559.51,834.933 1485.5,877C 1478.02,881.24 1470.36,885.24 1462.5,889C 1451.5,895.981 1447.5,905.981 1450.5,919C 1451.08,942.494 1451.25,965.994 1451,989.5C 1451.43,993.527 1453.59,996.027 1457.5,997C 1519.17,997.667 1580.83,997.667 1642.5,997C 1651.34,992.827 1659.67,987.827 1667.5,982C 1711.83,961.304 1750.33,969.137 1783,1005.5C 1800.68,1029.22 1806.01,1055.56 1799,1084.5C 1785.16,1126.18 1756.32,1148.51 1712.5,1151.5C 1699.63,1151.58 1687.29,1149.08 1675.5,1144C 1664.81,1137.97 1654.15,1131.97 1643.5,1126C 1580.83,1125.33 1518.17,1125.33 1455.5,1126C 1453.62,1127.54 1452.12,1129.38 1451,1131.5C 1450.33,1413.5 1450.33,1695.5 1451,1977.5C 1453,1980.17 1455.67,1981.5 1459,1981.5C 1542.36,1974.76 1623.2,1956.93 1701.5,1928C 1775.22,1899.24 1839.39,1856.41 1894,1799.5C 1909.81,1782.03 1924.47,1763.7 1938,1744.5C 1941.19,1740.13 1943.85,1735.46 1946,1730.5C 1947.29,1726.37 1946.13,1723.21 1942.5,1721C 1921.27,1715.61 1900.27,1709.44 1879.5,1702.5C 1958.48,1627.35 2037.32,1552.02 2116,1476.5C 2141.43,1578.39 2166.43,1680.39 2191,1782.5C 2196.07,1787.69 2195.57,1792.19 2189.5,1796C 2186.83,1796.67 2184.17,1796.67 2181.5,1796C 2162.33,1791.28 2143.33,1785.94 2124.5,1780C 2118.84,1778.28 2114.34,1779.78 2111,1784.5C 1992.98,1991.15 1820.81,2131.98 1594.5,2207C 1543.25,2222.27 1490.92,2232.27 1437.5,2237C 1426.17,2239.58 1417.34,2245.75 1411,2255.5C 1402.94,2273.29 1394.61,2290.95 1386,2308.5C 1382.5,2314.84 1378.5,2320.84 1374,2326.5C 1370.38,2329.34 1367.05,2329.01 1364,2325.5C 1350.81,2299.12 1338.14,2272.45 1326,2245.5C 1320.26,2237.54 1312.43,2233.04 1302.5,2232C 1194.13,2222.88 1092.13,2192.54 996.5,2141C 823.694,2047.86 694.027,1913.19 607.5,1737C 603.018,1733.71 598.018,1732.71 592.5,1734C 569.389,1740.13 546.055,1745.3 522.5,1749.5C 554.826,1645.35 587.659,1541.35 621,1437.5C 694.5,1517.67 768,1597.83 841.5,1678C 818.301,1684.13 794.968,1689.97 771.5,1695.5C 810.69,1767.86 864.69,1826.69 933.5,1872C 1008.85,1919.49 1090.52,1951.16 1178.5,1967C 1204.7,1971.6 1231.04,1975.27 1257.5,1978C 1264.5,1978.67 1271.5,1978.67 1278.5,1978C 1280.33,1977.73 1281.83,1976.89 1283,1975.5C 1284.6,1972.35 1285.6,1969.02 1286,1965.5C 1287,1687.78 1286.66,1410.11 1285,1132.5C 1282.9,1128.07 1279.4,1125.57 1274.5,1125C 1207.5,1125.16 1140.5,1125.49 1073.5,1126C 1064.91,1129.63 1056.91,1134.3 1049.5,1140C 1005.37,1161.11 966.874,1153.61 934,1117.5C 911.529,1086.32 908.529,1053.32 925,1018.5C 952.076,975.583 989.91,961.75 1038.5,977C 1047.36,981.205 1055.69,986.205 1063.5,992C 1066.83,993.333 1070.17,994.667 1073.5,996C 1141.5,996.849 1209.5,997.183 1277.5,997C 1280.55,996.394 1283.05,994.894 1285,992.5C 1286.15,977.923 1286.65,963.256 1286.5,948.5C 1286.33,934.5 1286.17,920.5 1286,906.5C 1284.56,902.725 1282.06,899.892 1278.5,898C 1156.99,850.547 1098.49,761.38 1103,630.5C 1109.3,569.069 1134.47,516.902 1178.5,474C 1222.61,431.945 1274.94,407.112 1335.5,399.5 Z"/></g>
<g><path style="opacity:1" fill="#2d4a98" d="M 1343.5,525.5 C 1408.87,522.746 1454.7,551.079 1481,610.5C 1498.49,666.322 1486.33,714.489 1444.5,755C 1398.75,791.279 1349.42,796.946 1296.5,772C 1247.57,742.99 1224.74,699.823 1228,642.5C 1236.86,585.916 1268.36,548.416 1322.5,530C 1329.59,528.269 1336.59,526.769 1343.5,525.5 Z"/></g>
</svg>
