<?xml version="1.0" encoding="UTF-8"?>
<!DOCTYPE svg PUBLIC "-//W3C//DTD SVG 1.1//EN" "http://www.w3.org/Graphics/SVG/1.1/DTD/svg11.dtd">
<svg xmlns="http://www.w3.org/2000/svg" version="1.1" width="2717px" height="2718px" style="shape-rendering:geometricPrecision; text-rendering:geometricPrecision; image-rendering:optimizeQuality; fill-rule:evenodd; clip-rule:evenodd" xmlns:xlink="http://www.w3.org/1999/xlink">
<g><path style="opacity:0.996" fill="#2d4a98" d="M 234.5,-0.5 C 983.833,-0.5 1733.17,-0.5 2482.5,-0.5C 2571.45,8.03897 2638.95,50.3723 2685,126.5C 2702.28,157.828 2712.78,191.162 2716.5,226.5C 2716.5,981.167 2716.5,1735.83 2716.5,2490.5C 2706.13,2573.44 2665.79,2637.27 2595.5,2682C 2558.64,2703.63 2518.97,2715.46 2476.5,2717.5C 1731.17,2717.5 985.833,2717.5 240.5,2717.5C 151.483,2711.58 82.9826,2671.25 35,2596.5C 14.6598,2562.11 2.82646,2525.11 -0.5,2485.5C -0.5,1734.17 -0.5,982.833 -0.5,231.5C 7.85116,148.601 46.5178,84.1013 115.5,38C 152.111,15.4366 191.777,2.60329 234.5,-0.5 Z"/></g>
<g><path style="opacity:1" fill="#fdfdfe" d="M 356.5,101.5 C 1023.17,101.333 1689.83,101.5 2356.5,102C 2450.96,109.883 2523.79,153.383 2575,232.5C 2598.57,271.553 2611.91,313.886 2615,359.5C 2615.67,1025.5 2615.67,1691.5 2615,2357.5C 2606.55,2449.85 2564.05,2521.68 2487.5,2573C 2447.28,2597.63 2403.61,2611.63 2356.5,2615C 1691.17,2615.67 1025.83,2615.67 360.5,2615C 269.216,2607.46 197.716,2566.3 146,2491.5C 120.78,2452.17 106.113,2409.17 102,2362.5C 101.333,1692.83 101.333,1023.17 102,353.5C 114.421,247.75 168.254,171.583 263.5,125C 293.32,111.962 324.32,104.129 356.5,101.5 Z"/></g>
<g><path style="opacity:1" fill="#2d4a98" d="M 355.5,151.5 C 1023.17,151.333 1690.83,151.5 2358.5,152C 2444.38,161.921 2506.55,205.421 2545,282.5C 2555,304.826 2561.33,328.159 2564,352.5C 2564.67,1023.17 2564.67,1693.83 2564,2364.5C 2554.47,2436.77 2519.31,2492.6 2458.5,2532C 2426.47,2551.23 2391.8,2562.23 2354.5,2565C 1689.17,2565.67 1023.83,2565.67 358.5,2565C 269.802,2554.6 206.636,2509.1 169,2428.5C 160.192,2406.6 154.525,2383.93 152,2360.5C 151.333,1691.5 151.333,1022.5 152,353.5C 163.406,270.137 206.573,209.637 281.5,172C 305.262,161.424 329.929,154.59 355.5,151.5 Z"/></g>
<g><path style="opacity:1" fill="#fefefe" d="M 1881.5,334.5 C 1925.63,331.632 1951.13,351.965 1958,395.5C 1958.67,1027.83 1958.67,1660.17 1958,2292.5C 1950.16,2339.67 1922.99,2368.84 1876.5,2380C 1852.86,2381.11 1829.19,2381.61 1805.5,2381.5C 1783.13,2381.63 1760.8,2381.13 1738.5,2380C 1693.8,2368.96 1667.3,2340.8 1659,2295.5C 1658.33,2285.5 1658.33,2275.5 1659,2265.5C 1683.26,1991.72 1708.6,1718.05 1735,1444.5C 1740.21,1408.16 1730.88,1376.16 1707,1348.5C 1687.51,1329.02 1669.51,1308.35 1653,1286.5C 1603.47,1217.38 1584.14,1140.38 1595,1055.5C 1600.95,918.088 1626.28,784.422 1671,654.5C 1693.49,592.203 1720.82,532.203 1753,474.5C 1753.5,472.527 1753.66,470.527 1753.5,468.5C 1754.98,468.762 1756.31,468.429 1757.5,467.5C 1775.26,436.964 1794.76,407.63 1816,379.5C 1834,358.619 1855.84,343.619 1881.5,334.5 Z"/></g>
<g><path style="opacity:1" fill="#fefefe" d="M 748.5,335.5 C 778.165,333.7 796.665,347.034 804,375.5C 804.5,539.5 804.667,703.5 804.5,867.5C 832.167,867.5 859.833,867.5 887.5,867.5C 897.375,704.506 907.208,541.506 917,378.5C 919.267,360.14 928.767,346.973 945.5,339C 969.403,331.349 988.903,337.516 1004,357.5C 1007.52,363.399 1009.86,369.732 1011,376.5C 1020.71,540.177 1030.54,703.844 1040.5,867.5C 1068.17,867.5 1095.83,867.5 1123.5,867.5C 1123.33,703.5 1123.5,539.5 1124,375.5C 1129.81,351.256 1145.14,337.923 1170,335.5C 1191.16,336.335 1206.16,346.335 1215,365.5C 1216.87,370.318 1217.87,375.318 1218,380.5C 1227.75,544.515 1237.75,708.515 1248,872.5C 1249.83,940.978 1247.49,1009.31 1241,1077.5C 1230.65,1124.52 1209.99,1166.19 1179,1202.5C 1137.92,1241.43 1102.59,1284.76 1073,1332.5C 1086.33,1649.01 1100.16,1965.51 1114.5,2282C 1112,2325.13 1091.33,2355.79 1052.5,2374C 1043.72,2377.11 1034.72,2379.45 1025.5,2381C 983.833,2381.67 942.167,2381.67 900.5,2381C 856.237,2373.07 828.237,2347.4 816.5,2304C 815.081,2296.73 814.081,2289.39 813.5,2282C 827.536,1965.49 841.37,1648.99 855,1332.5C 838.767,1309.6 821.767,1287.26 804,1265.5C 782.367,1241.53 760.367,1217.87 738,1194.5C 707.248,1153.3 689.582,1106.97 685,1055.5C 680.253,992.248 678.586,928.914 680,865.5C 690.581,703.54 700.581,541.54 710,379.5C 713.429,356.573 726.262,341.906 748.5,335.5 Z"/></g>
</svg>
