<?xml version="1.0" encoding="UTF-8"?>
<!DOCTYPE svg PUBLIC "-//W3C//DTD SVG 1.1//EN" "http://www.w3.org/Graphics/SVG/1.1/DTD/svg11.dtd">
<svg xmlns="http://www.w3.org/2000/svg" version="1.1" width="2717px" height="2718px" style="shape-rendering:geometricPrecision; text-rendering:geometricPrecision; image-rendering:optimizeQuality; fill-rule:evenodd; clip-rule:evenodd" xmlns:xlink="http://www.w3.org/1999/xlink">
<g><path style="opacity:0.997" fill="#7e401b" d="M 234.5,-0.5 C 983.5,-0.5 1732.5,-0.5 2481.5,-0.5C 2572.54,8.07283 2641.04,51.7395 2687,130.5C 2703.45,161.665 2713.28,194.665 2716.5,229.5C 2716.5,982.167 2716.5,1734.83 2716.5,2487.5C 2707.09,2570.19 2667.75,2634.36 2598.5,2680C 2560.89,2702.73 2520.22,2715.23 2476.5,2717.5C 1730.83,2717.5 985.167,2717.5 239.5,2717.5C 140.852,2709.65 68.6849,2661.98 23,2574.5C 10.2992,2546.69 2.4659,2517.69 -0.5,2487.5C -0.5,1734.83 -0.5,982.167 -0.5,229.5C 11.1112,132.088 61.1112,62.2545 149.5,20C 176.858,8.57603 205.191,1.74269 234.5,-0.5 Z"/></g>
<g><path style="opacity:1" fill="#fdfcfc" d="M 352.5,101.5 C 1020.5,101.333 1688.5,101.5 2356.5,102C 2449.36,109.961 2521.53,152.461 2573,229.5C 2598.43,270.139 2612.43,314.472 2615,362.5C 2615.67,1026.17 2615.67,1689.83 2615,2353.5C 2607.95,2446.14 2566.45,2518.64 2490.5,2571C 2449.31,2597.06 2404.31,2611.73 2355.5,2615C 1689.17,2615.67 1022.83,2615.67 356.5,2615C 263.981,2606.05 192.481,2562.89 142,2485.5C 117.665,2444.83 103.998,2400.83 101,2353.5C 100.333,1689.83 100.333,1026.17 101,362.5C 109.157,261.621 156.657,185.788 243.5,135C 277.718,116.535 314.052,105.369 352.5,101.5 Z"/></g>
<g><path style="opacity:1" fill="#7e401b" d="M 355.5,151.5 C 1021.83,151.333 1688.17,151.5 2354.5,152C 2444.19,161.081 2508.36,206.248 2547,287.5C 2556.1,308.574 2561.77,330.574 2564,353.5C 2564.67,1023.17 2564.67,1692.83 2564,2362.5C 2554.57,2436.24 2518.73,2493.08 2456.5,2533C 2424.96,2551.39 2390.96,2562.05 2354.5,2565C 1690.17,2565.67 1025.83,2565.67 361.5,2565C 273.637,2556.09 210.137,2512.26 171,2433.5C 161.073,2410.79 154.74,2387.13 152,2362.5C 151.333,1693.83 151.333,1025.17 152,356.5C 161.204,277.018 200.37,217.518 269.5,178C 296.648,163.781 325.315,154.947 355.5,151.5 Z"/></g>
<g><path style="opacity:1" fill="#b18b75" d="M 1623.5,865.5 C 1605.33,865.17 1587.33,865.503 1569.5,866.5C 1568.96,866.44 1568.62,866.107 1568.5,865.5C 1587,864.173 1605.33,864.173 1623.5,865.5 Z"/></g>
<g><path style="opacity:1" fill="#fefefe" d="M 1623.5,865.5 C 1628.87,865.172 1634.21,865.505 1639.5,866.5C 1677.26,943.018 1715.26,1019.35 1753.5,1095.5C 1954.33,1096.5 2155.33,1096.83 2356.5,1096.5C 2356.5,1097.83 2356.5,1099.17 2356.5,1100.5C 2348.21,1198.99 2326.38,1294.32 2291,1386.5C 2261.02,1462.15 2215.52,1526.81 2154.5,1580.5C 2129.01,1562.95 2100.67,1553.45 2069.5,1552C 2018.27,1547.07 1968.94,1554.4 1921.5,1574C 1863.99,1602.2 1811.99,1638.2 1765.5,1682C 1739.26,1702.53 1709.59,1710.86 1676.5,1707C 1665.62,1704.06 1655.28,1699.73 1645.5,1694C 1606.96,1668.56 1569.29,1641.9 1532.5,1614C 1510.83,1598.82 1488.16,1585.16 1464.5,1573C 1386.58,1539.25 1309.91,1541.92 1234.5,1581C 1186.49,1603.5 1143.49,1633.16 1105.5,1670C 1082.03,1688.57 1055.7,1701.57 1026.5,1709C 1013.1,1710.69 1000.1,1709.36 987.5,1705C 970.712,1696.53 954.712,1686.86 939.5,1676C 898.446,1645.95 857.112,1616.28 815.5,1587C 755.084,1555.93 691.084,1544.26 623.5,1552C 565.815,1559.77 512.982,1579.94 465,1612.5C 464.654,1516.17 464.82,1419.83 465.5,1323.5C 830.467,1270.2 1195.47,1217.03 1560.5,1164C 1601.14,1154.36 1622.48,1128.69 1624.5,1087C 1624.48,1080.46 1623.98,1073.96 1623,1067.5C 1604.98,1000.6 1587.15,933.599 1569.5,866.5C 1587.33,865.503 1605.33,865.17 1623.5,865.5 Z"/></g>
<g><path style="opacity:1" fill="#fefefe" d="M 1315.5,875.5 C 1373.55,871.093 1414.72,895.093 1439,947.5C 1453.85,995.273 1443.68,1036.77 1408.5,1072C 1366.72,1105.05 1322.05,1109.38 1274.5,1085C 1231.79,1056.61 1213.96,1016.77 1221,965.5C 1234.24,916.087 1265.74,886.087 1315.5,875.5 Z"/></g>
<g><path style="opacity:1" fill="#fefefe" d="M 706.5,1194.5 C 706.567,1195.96 706.234,1197.29 705.5,1198.5C 593.45,1212.18 481.45,1226.18 369.5,1240.5C 362.755,1190.12 355.589,1139.79 348,1089.5C 345.579,1057.5 358.413,1034 386.5,1019C 392.921,1016.19 399.588,1014.19 406.5,1013C 474.833,1012.33 543.167,1012.33 611.5,1013C 654.929,1017.76 679.096,1041.93 684,1085.5C 691.312,1121.89 698.812,1158.23 706.5,1194.5 Z"/></g>
<g><path style="opacity:1" fill="#a2755a" d="M 1753.5,1095.5 C 1954.83,1095.5 2156.17,1095.5 2357.5,1095.5C 2357.78,1097.41 2357.45,1099.08 2356.5,1100.5C 2356.5,1099.17 2356.5,1097.83 2356.5,1096.5C 2155.33,1096.83 1954.33,1096.5 1753.5,1095.5 Z"/></g>
<g><path style="opacity:1" fill="#b89682" d="M 706.5,1194.5 C 707.124,1194.92 707.457,1195.58 707.5,1196.5C 707.253,1197.71 706.586,1198.38 705.5,1198.5C 706.234,1197.29 706.567,1195.96 706.5,1194.5 Z"/></g>
<g><path style="opacity:1" fill="#fefefe" d="M 640.5,1717.5 C 682.766,1714.65 723.099,1722.15 761.5,1740C 782.262,1749.8 802.262,1760.8 821.5,1773C 867.3,1805.74 914.3,1836.74 962.5,1866C 975.615,1873.89 989.615,1879.56 1004.5,1883C 1021.75,1883.52 1038.41,1880.52 1054.5,1874C 1062.78,1870.53 1070.78,1866.53 1078.5,1862C 1098.18,1849.83 1117.51,1837.16 1136.5,1824C 1163.43,1801.4 1191.76,1780.73 1221.5,1762C 1255.69,1740.94 1292.69,1727.6 1332.5,1722C 1368.62,1718.39 1403.62,1723.06 1437.5,1736C 1475.44,1750.13 1509.78,1770.13 1540.5,1796C 1563.76,1818.61 1588.76,1838.94 1615.5,1857C 1645.35,1876.63 1678.01,1884.63 1713.5,1881C 1720.67,1879.61 1727.67,1877.61 1734.5,1875C 1743,1870.25 1751.33,1865.25 1759.5,1860C 1800.17,1832.33 1840.83,1804.67 1881.5,1777C 1917.22,1753.48 1955.89,1736.48 1997.5,1726C 2020.11,1721.84 2042.78,1721.51 2065.5,1725C 2123.4,1736.46 2176.4,1759.12 2224.5,1793C 2246.29,1811.07 2269.96,1826.41 2295.5,1839C 2319.98,1849.95 2345.65,1855.12 2372.5,1854.5C 2372.5,1894.17 2372.5,1933.83 2372.5,1973.5C 2334.12,1971.55 2297.12,1963.38 2261.5,1949C 2231.28,1935.23 2201.95,1919.89 2173.5,1903C 2149.82,1887.16 2126.48,1870.83 2103.5,1854C 2077.99,1839.12 2050.65,1833.79 2021.5,1838C 1990.97,1848.26 1962.3,1862.26 1935.5,1880C 1898.35,1906.41 1860.69,1932.08 1822.5,1957C 1794.05,1974.06 1763.72,1986.39 1731.5,1994C 1692.37,2000.36 1654.37,1996.36 1617.5,1982C 1584.22,1968.87 1553.22,1951.87 1524.5,1931C 1500.3,1913.14 1476.96,1894.14 1454.5,1874C 1430.04,1855.94 1403.04,1842.94 1373.5,1835C 1358.65,1832.46 1343.99,1833.13 1329.5,1837C 1316.1,1842.53 1303.1,1848.87 1290.5,1856C 1244.4,1883.71 1200.4,1914.38 1158.5,1948C 1123.41,1971.48 1085.07,1987.15 1043.5,1995C 997.514,2000.46 953.848,1992.79 912.5,1972C 885.228,1958.04 859.561,1941.7 835.5,1923C 815.547,1908.05 795.88,1892.72 776.5,1877C 751.862,1860.68 725.195,1848.68 696.5,1841C 639.225,1830.65 587.225,1842.65 540.5,1877C 506.786,1908.37 469.119,1934.03 427.5,1954C 397.528,1966.83 366.195,1973.33 333.5,1973.5C 333.167,1933.83 333.5,1894.16 334.5,1854.5C 371.081,1843.87 405.415,1828.37 437.5,1808C 477.597,1777.44 521.263,1752.77 568.5,1734C 592.002,1725.62 616.002,1720.12 640.5,1717.5 Z"/></g>
</svg>
