<?xml version="1.0" encoding="UTF-8"?>
<!DOCTYPE svg PUBLIC "-//W3C//DTD SVG 1.1//EN" "http://www.w3.org/Graphics/SVG/1.1/DTD/svg11.dtd">
<svg xmlns="http://www.w3.org/2000/svg" version="1.1" width="2531px" height="2577px" style="shape-rendering:geometricPrecision; text-rendering:geometricPrecision; image-rendering:optimizeQuality; fill-rule:evenodd; clip-rule:evenodd" xmlns:xlink="http://www.w3.org/1999/xlink">
<g><path style="opacity:0.994" fill="#142c70" d="M 1284.5,106.5 C 1595.34,107.864 1864.67,212.697 2092.5,421C 2301.16,619.834 2422,863.334 2455,1151.5C 2481.13,1428.3 2418.8,1682.97 2268,1915.5C 2123.64,2129.32 1930.14,2280.82 1687.5,2370C 1426.5,2460 1165.5,2460 904.5,2370C 644.486,2273.97 441.986,2108.14 297,1872.5C 159.396,1638.82 107.396,1387.16 141,1117.5C 183.793,824.343 315.959,580.843 537.5,387C 752.657,205.85 1001.66,112.35 1284.5,106.5 Z"/></g>
<g><path style="opacity:1" fill="#20479e" d="M 1261.5,190.5 C 1555.95,185.783 1811.95,281.283 2029.5,477C 2217.72,653.57 2330.55,870.403 2368,1127.5C 2401.98,1404.56 2340.98,1658.23 2185,1888.5C 2025.83,2112.44 1812.33,2257.94 1544.5,2325C 1300.49,2380.03 1064.82,2355.7 837.5,2252C 604.42,2139.59 431.253,1967.09 318,1734.5C 208.51,1496.3 185.843,1249.97 250,995.5C 319.158,746.147 457.658,545.314 665.5,393C 843.726,266.422 1042.39,198.922 1261.5,190.5 Z"/></g>
<g><path style="opacity:1" fill="#fefefe" d="M 845.5,310.5 C 1053.16,358.495 1237.82,450.662 1399.5,587C 1478.89,655.721 1551.39,730.888 1617,812.5C 1741.6,963.58 1840.27,1130.91 1913,1314.5C 1915.8,1321.76 1918.3,1329.09 1920.5,1336.5C 1700.19,1372.27 1479.85,1407.94 1259.5,1443.5C 1251.63,1294.95 1227.13,1149.28 1186,1006.5C 1185.59,1006.04 1185.09,1005.71 1184.5,1005.5C 1112.27,1023.97 1039.94,1041.97 967.5,1059.5C 969.616,1091.3 976.783,1121.97 989,1151.5C 995.079,1167.23 1004.58,1180.4 1017.5,1191C 1051.86,1206.01 1084.86,1223.34 1116.5,1243C 1134.69,1257.91 1149.19,1275.75 1160,1296.5C 1182.88,1342.46 1200.21,1390.46 1212,1440.5C 1214.49,1466.06 1202.99,1478.56 1177.5,1478C 1164.59,1474.76 1156.76,1466.59 1154,1453.5C 1146.1,1412.71 1129.77,1375.71 1105,1342.5C 1082.07,1313.12 1051.9,1296.95 1014.5,1294C 978.612,1284.72 945.946,1269.05 916.5,1247C 897.781,1230.07 883.614,1209.91 874,1186.5C 851.204,1130.32 838.037,1071.98 834.5,1011.5C 834.204,1006.63 836.538,1004.46 841.5,1005C 950.077,984.584 1058.74,964.751 1167.5,945.5C 1088.24,718.638 980.908,506.972 845.5,310.5 Z"/></g>
<g><path style="opacity:1" fill="#fefefe" d="M 865.5,832.5 C 901.211,831.077 926.711,846.411 942,878.5C 952.345,914.311 942.512,943.144 912.5,965C 875.676,983.727 843.842,977.561 817,946.5C 802.243,924.214 799.577,900.548 809,875.5C 820.544,851.441 839.377,837.108 865.5,832.5 Z"/></g>
<g><path style="opacity:1" fill="#fefefe" d="M 309.5,1672.5 C 307.901,1672.77 306.568,1672.43 305.5,1671.5C 389.34,1646.82 452.173,1596.15 494,1519.5C 499.441,1575.58 525.275,1619.41 571.5,1651C 591.358,1663.62 613.025,1669.29 636.5,1668C 612.792,1651.13 596.125,1628.96 586.5,1601.5C 1102.13,1512.29 1617.8,1423.29 2133.5,1334.5C 2103.26,1410.14 2058.26,1475.64 1998.5,1531C 1957.37,1568.56 1912.37,1600.73 1863.5,1627.5C 1894.47,1659.11 1931.14,1667.94 1973.5,1654C 2006.04,1644.07 2035.38,1628.4 2061.5,1607C 2085.82,1586.69 2107.32,1563.85 2126,1538.5C 2136.59,1587.41 2164.09,1623.24 2208.5,1646C 2225.69,1654.1 2243.36,1660.77 2261.5,1666C 2232.28,1683.15 2201.62,1686.15 2169.5,1675C 2152.76,1668.09 2138.76,1657.59 2127.5,1643.5C 2089.3,1669.77 2047.96,1689.93 2003.5,1704C 1935.56,1723.74 1872.89,1713.08 1815.5,1672C 1804.65,1663.41 1793.98,1654.57 1783.5,1645.5C 1728.71,1695.49 1664.04,1719.33 1589.5,1717C 1541.26,1712.13 1500.76,1691.96 1468,1656.5C 1458.76,1645.67 1450.26,1634.33 1442.5,1622.5C 1393.69,1689.72 1327.69,1719.22 1244.5,1711C 1191.13,1699.28 1150.29,1670.11 1122,1623.5C 1078.84,1668.5 1026.34,1696.33 964.5,1707C 914.543,1710.09 872.376,1693.59 838,1657.5C 827.846,1646.35 818.846,1634.35 811,1621.5C 759.951,1676.31 696.784,1701.81 621.5,1698C 579.344,1692.91 542.011,1676.91 509.5,1650C 498.322,1639.99 487.655,1629.49 477.5,1618.5C 425.181,1647.94 369.181,1665.94 309.5,1672.5 Z"/></g>
<g><path style="opacity:1" fill="#fefefe" d="M 1003.5,1335.5 C 1031.06,1337.57 1056.06,1346.57 1078.5,1362.5C 1078.83,1364.17 1079.17,1365.83 1079.5,1367.5C 1077.62,1406.15 1076.12,1444.82 1075,1483.5C 1070.72,1503.1 1058.56,1511.94 1038.5,1510C 1027.76,1506.93 1020.6,1500.1 1017,1489.5C 1012.17,1438.2 1007.67,1386.86 1003.5,1335.5 Z"/></g>
<g><path style="opacity:1" fill="#9babd3" d="M 305.5,1671.5 C 306.568,1672.43 307.901,1672.77 309.5,1672.5C 306.696,1673.64 303.696,1673.8 300.5,1673C 302.154,1672.39 303.821,1671.89 305.5,1671.5 Z"/></g>
</svg>
